<mxfile host="app.diagrams.net" modified="2021-10-16T08:23:22.293Z" agent="5.0 (Windows NT 10.0; Win64; x64) AppleWebKit/537.36 (KHTML, like Gecko) Chrome/94.0.4606.81 Safari/537.36" etag="j-9AVjOY2oHJmrTmFA8p" version="15.5.4" type="github">
  <diagram id="LdFL8XtzHP3zABR3VSE9" name="Page-1">
    <mxGraphModel dx="1422" dy="737" grid="1" gridSize="10" guides="1" tooltips="1" connect="1" arrows="1" fold="1" page="1" pageScale="1" pageWidth="827" pageHeight="1169" math="0" shadow="0">
      <root>
        <mxCell id="0" />
        <mxCell id="1" parent="0" />
        <mxCell id="De056qyLBaReDMA6Ur66-1" value="&lt;span style=&quot;color: rgba(0 , 0 , 0 , 0) ; font-family: monospace ; font-size: 0px ; background-color: rgb(248 , 249 , 250)&quot;&gt;%3CmxGraphModel%3E%3Croot%3E%3CmxCell%20id%3D%220%22%2F%3E%3CmxCell%20id%3D%221%22%20parent%3D%220%22%2F%3E%3CmxCell%20id%3D%222%22%20value%3D%22%22%20style%3D%22rounded%3D0%3BwhiteSpace%3Dwrap%3Bhtml%3D1%3B%22%20vertex%3D%221%22%20parent%3D%221%22%3E%3CmxGeometry%20x%3D%22250%22%20y%3D%22545%22%20width%3D%22160%22%20height%3D%2240%22%20as%3D%22geometry%22%2F%3E%3C%2FmxCell%3E%3C%2Froot%3E%3C%2FmxGraphModel%3E&lt;/span&gt;" style="html=1;verticalLabelPosition=bottom;labelBackgroundColor=#ffffff;verticalAlign=top;shadow=0;dashed=0;strokeWidth=1;shape=mxgraph.ios7.misc.ipad7inch;strokeColor=#c0c0c0;" vertex="1" parent="1">
          <mxGeometry x="230" y="100" width="366" height="549" as="geometry" />
        </mxCell>
        <mxCell id="De056qyLBaReDMA6Ur66-2" value="Vissza" style="rounded=0;whiteSpace=wrap;html=1;" vertex="1" parent="1">
          <mxGeometry x="250" y="555" width="160" height="40" as="geometry" />
        </mxCell>
        <mxCell id="De056qyLBaReDMA6Ur66-3" value="Tovább" style="rounded=0;whiteSpace=wrap;html=1;" vertex="1" parent="1">
          <mxGeometry x="410" y="555" width="170" height="40" as="geometry" />
        </mxCell>
        <mxCell id="De056qyLBaReDMA6Ur66-5" value="" style="dashed=0;aspect=fixed;verticalLabelPosition=bottom;verticalAlign=top;align=center;shape=mxgraph.gmdl.calendar;strokeColor=none;fillColor=#737373;shadow=0;sketch=0;" vertex="1" parent="1">
          <mxGeometry x="363" y="210" width="100" height="100" as="geometry" />
        </mxCell>
        <mxCell id="De056qyLBaReDMA6Ur66-6" value="Év/Hónap/Nap" style="text;html=1;strokeColor=none;fillColor=none;align=center;verticalAlign=middle;whiteSpace=wrap;rounded=0;" vertex="1" parent="1">
          <mxGeometry x="384" y="330" width="60" height="30" as="geometry" />
        </mxCell>
        <mxCell id="De056qyLBaReDMA6Ur66-8" value="" style="shape=image;html=1;verticalAlign=top;verticalLabelPosition=bottom;labelBackgroundColor=#ffffff;imageAspect=0;aspect=fixed;image=https://cdn0.iconfinder.com/data/icons/free-daily-icon-set/512/Dollar-128.png" vertex="1" parent="1">
          <mxGeometry x="363" y="400" width="90" height="90" as="geometry" />
        </mxCell>
        <mxCell id="De056qyLBaReDMA6Ur66-9" value="X Ft" style="text;html=1;strokeColor=none;fillColor=none;align=center;verticalAlign=middle;whiteSpace=wrap;rounded=0;" vertex="1" parent="1">
          <mxGeometry x="378" y="490" width="60" height="30" as="geometry" />
        </mxCell>
        <mxCell id="De056qyLBaReDMA6Ur66-10" value="Tervezett keret" style="rounded=0;whiteSpace=wrap;html=1;" vertex="1" parent="1">
          <mxGeometry x="280" y="370" width="270" height="30" as="geometry" />
        </mxCell>
        <mxCell id="De056qyLBaReDMA6Ur66-12" value="Tervezett dátum" style="rounded=0;whiteSpace=wrap;html=1;" vertex="1" parent="1">
          <mxGeometry x="278" y="170" width="270" height="30" as="geometry" />
        </mxCell>
      </root>
    </mxGraphModel>
  </diagram>
</mxfile>
